<svg width="100" height="100" viewBox="0 0 100 100" fill="none" xmlns="http://www.w3.org/2000/svg">
<rect width="100" height="100" rx="50" fill="white"/>
<path fill-rule="evenodd" clip-rule="evenodd" d="M24.2437 13.0952C21.0247 15.346 18.1138 18.0072 15.587 21.0029C25.9129 20.0442 39.0316 21.6096 54.2624 29.225C70.5267 37.357 83.6235 37.6319 92.7383 35.8738C91.9112 33.3698 90.8699 30.9632 89.6367 28.6754C79.2027 29.7758 65.8265 28.3192 50.2376 20.525C40.3384 15.5754 31.6125 13.5365 24.2437 13.0952ZM83.5416 20C75.3019 10.7937 63.3276 5 50 5C46.0861 5 42.2885 5.49974 38.6683 6.43883C43.5715 7.77669 48.7802 9.73397 54.2624 12.4751C65.6757 18.1817 75.5294 20.0191 83.5416 20ZM94.687 44.6632C83.6755 46.8376 68.4698 46.391 50.2376 37.2749C33.1924 28.7523 19.626 28.8596 10.4763 30.893C10.004 30.9978 9.54284 31.1081 9.09282 31.2228C7.8949 33.8281 6.93868 36.5677 6.25258 39.4126C6.98537 39.2168 7.7426 39.0308 8.52386 38.8571C19.624 36.3904 35.3077 36.4975 54.2624 45.9749C71.3077 54.4975 84.8741 54.3902 94.024 52.3569C94.3374 52.2873 94.6463 52.2153 94.9501 52.1411C94.9834 51.4316 95 50.7177 95 50C95 48.1943 94.8938 46.4135 94.687 44.6632ZM93.4808 61.6377C82.5762 63.5441 67.8132 62.8124 50.2376 54.0248C33.1924 45.5022 19.626 45.6095 10.4763 47.6429C8.44532 48.094 6.61829 48.6437 5.00659 49.2239C5.0022 49.482 5 49.7408 5 50C5 74.8528 25.1472 95 50 95C70.8285 95 88.3519 80.8495 93.4808 61.6377Z" fill="#212833"/>
</svg>
