<svg width="108" height="86" viewBox="0 0 108 86" fill="none" xmlns="http://www.w3.org/2000/svg">
<path fill-rule="evenodd" clip-rule="evenodd" d="M5.9269 19.4048C5.0498 18.8067 3.68056 18.2078 3.7529 17.864C4.97772 12.0098 7.02551 6.42288 12.4452 2.58509C13.6935 1.70459 16.1478 1.30203 17.6054 1.7782C18.8959 2.20663 20.5427 4.32231 20.3492 5.42827C18.9931 12.8811 13.2269 16.8626 5.9269 19.4048Z" fill="#E05C5C"/>
<path fill-rule="evenodd" clip-rule="evenodd" d="M82.5964 14.4633C81.6922 13.4972 80.6831 12.635 79.97 11.4998C79.7746 11.1865 80.3493 9.92843 80.7984 9.34002C82.6651 6.82594 84.7302 4.40656 87.8012 5.41434C88.8414 5.75111 89.7186 7.16326 90.4102 8.31234C90.6093 8.63576 90.0514 9.8897 89.614 10.4936C87.7698 13.0536 85.7301 15.2208 82.5964 14.4633Z" fill="#E05C5C"/>
<path fill-rule="evenodd" clip-rule="evenodd" d="M89.8123 84.8372C88.7853 83.475 87.2308 82.2787 86.9371 80.782C86.6126 79.2107 86.9766 76.3548 87.9339 75.804C92.6927 73.106 97.7466 72.4577 102.593 75.7585C103.161 76.1425 103.763 77.2168 103.652 77.8423C103.358 79.5332 103.16 81.8446 102.084 82.6762C98.4452 85.51 94.1653 85.9059 89.8123 84.8372Z" fill="#E05C5C"/>
</svg>
