<svg width="158" height="158" viewBox="0 0 158 158" fill="none" xmlns="http://www.w3.org/2000/svg">
<mask id="mask0_1172_115" style="mask-type:alpha" maskUnits="userSpaceOnUse" x="21" y="21" width="116" height="116">
<ellipse rx="57.4638" ry="57.6664" transform="matrix(-0.864369 0.502859 0.497147 0.867666 79.1169 79.0502)" fill="white"/>
</mask>
<g mask="url(#mask0_1172_115)">
<rect width="1.4366" height="122.541" transform="matrix(-0.864369 0.502859 0.497147 0.867666 101.637 -12.2908)" fill="#FF6701"/>
<rect width="1.4366" height="122.541" transform="matrix(-0.864369 0.502859 0.497147 0.867666 94.1863 -7.9563)" fill="#FF6701"/>
<rect width="1.4366" height="122.541" transform="matrix(-0.864369 0.502859 0.497147 0.867666 87.3567 -3.98315)" fill="#FF6701"/>
<rect width="1.4366" height="122.541" transform="matrix(-0.864369 0.502859 0.497147 0.867666 79.9062 0.351318)" fill="#FF6701"/>
<rect width="1.4366" height="122.541" transform="matrix(-0.864369 0.502859 0.497147 0.867666 72.4556 4.68579)" fill="#FF6701"/>
<rect width="1.4366" height="122.541" transform="matrix(-0.864369 0.502859 0.497147 0.867666 65.626 8.65894)" fill="#FF6701"/>
<rect width="1.4366" height="122.541" transform="matrix(-0.864369 0.502859 0.497147 0.867666 58.1755 12.9934)" fill="#FF6701"/>
<rect width="1.4366" height="122.541" transform="matrix(-0.864369 0.502859 0.497147 0.867666 50.7251 17.3278)" fill="#FF6701"/>
<rect width="1.4366" height="122.541" transform="matrix(-0.864369 0.502859 0.497147 0.867666 43.8955 21.301)" fill="#FF6701"/>
<rect width="1.4366" height="122.541" transform="matrix(-0.864369 0.502859 0.497147 0.867666 36.4451 25.6355)" fill="#FF6701"/>
<rect width="1.4366" height="122.541" transform="matrix(-0.864369 0.502859 0.497147 0.867666 28.9944 29.9698)" fill="#FF6701"/>
<rect width="1.4366" height="122.541" transform="matrix(-0.864369 0.502859 0.497147 0.867666 22.7856 33.5819)" fill="#FF6701"/>
<rect width="1.4366" height="122.541" transform="matrix(-0.864369 0.502859 0.497147 0.867666 14.7144 38.2776)" fill="#FF6701"/>
<rect width="1.4366" height="122.541" transform="matrix(-0.864369 0.502859 0.497147 0.867666 7.88477 42.2507)" fill="#FF6701"/>
<rect width="1.4366" height="122.541" transform="matrix(-0.864369 0.502859 0.497147 0.867666 0.434326 46.5852)" fill="#FF6701"/>
</g>
</svg>
