<svg width="106" height="78" viewBox="0 0 106 78" fill="none" xmlns="http://www.w3.org/2000/svg">
<path fill-rule="evenodd" clip-rule="evenodd" d="M93.742 63.7765C94.4683 64.3493 95.6403 65.0069 95.5354 65.2375C93.7563 69.1646 91.2621 72.7617 85.913 74.5456C84.6813 74.954 82.4118 74.8182 81.1457 74.2322C80.0256 73.7085 78.7755 71.9315 79.0773 71.1831C81.1583 66.1489 86.8376 64.3228 93.742 63.7765Z" fill="#E05C5C"/>
<path fill-rule="evenodd" clip-rule="evenodd" d="M23.7154 54.14C24.4242 54.9775 25.2398 55.7595 25.756 56.6839C25.8972 56.9387 25.2327 57.7293 24.7585 58.0682C22.7798 59.525 20.6322 60.881 17.9651 59.643C17.0612 59.2269 16.428 58.0789 15.9328 57.1485C15.7894 56.8858 16.4383 56.0953 16.9037 55.7435C18.8673 54.2503 20.963 53.0682 23.7154 54.14Z" fill="#E05C5C"/>
<path fill-rule="evenodd" clip-rule="evenodd" d="M25.2266 3.17614C26.0013 4.31457 27.2728 5.42605 27.3677 6.53397C27.482 7.69988 26.8256 9.65558 25.8953 9.88087C21.2754 10.9725 16.6226 10.5652 12.6096 7.40296C12.1386 7.03435 11.716 6.17212 11.8883 5.74913C12.3483 4.60473 12.7918 3.00529 13.8613 2.60177C17.4823 1.22248 21.4051 1.67562 25.2266 3.17614Z" fill="#E05C5C"/>
</svg>
