<svg width="209" height="52" viewBox="0 0 209 52" fill="none" xmlns="http://www.w3.org/2000/svg">
<g clip-path="url(#clip0_1_5)">
<path d="M72.168 41.56C69.7787 41.56 67.6693 40.9813 65.84 39.824C64.048 38.6667 62.648 37.024 61.64 34.896C60.632 32.7307 60.128 30.192 60.128 27.28C60.128 24.3307 60.632 21.8107 61.64 19.72C62.648 17.592 64.048 15.9493 65.84 14.792C67.6693 13.6347 69.7787 13.056 72.168 13.056C74.4453 13.056 76.424 13.616 78.104 14.736C79.8213 15.856 80.9787 17.3307 81.576 19.16H80.96V4.6C80.96 3.44266 81.2587 2.56533 81.856 1.968C82.4533 1.37066 83.312 1.072 84.432 1.072C85.552 1.072 86.4107 1.37066 87.008 1.968C87.6427 2.56533 87.96 3.44266 87.96 4.6V37.864C87.96 39.0213 87.6613 39.9173 87.064 40.552C86.4667 41.1493 85.608 41.448 84.488 41.448C83.368 41.448 82.5093 41.1493 81.912 40.552C81.3147 39.9173 81.016 39.0213 81.016 37.864V33.496L81.632 35.176C81.072 37.1173 79.9333 38.6667 78.216 39.824C76.4987 40.9813 74.4827 41.56 72.168 41.56ZM74.128 36.24C75.5093 36.24 76.7227 35.904 77.768 35.232C78.8133 34.56 79.616 33.5707 80.176 32.264C80.7733 30.92 81.072 29.2587 81.072 27.28C81.072 24.2933 80.4373 22.072 79.168 20.616C77.8987 19.1227 76.2187 18.376 74.128 18.376C72.7467 18.376 71.5333 18.712 70.488 19.384C69.4427 20.0187 68.6213 21.008 68.024 22.352C67.464 23.6587 67.184 25.3013 67.184 27.28C67.184 30.2293 67.8187 32.4693 69.088 34C70.3573 35.4933 72.0373 36.24 74.128 36.24ZM98.6901 51.528C97.5701 51.528 96.7115 51.2293 96.1141 50.632C95.5168 50.0347 95.2181 49.1573 95.2181 48V16.696C95.2181 15.5387 95.5168 14.6613 96.1141 14.064C96.7115 13.4667 97.5515 13.168 98.6341 13.168C99.7541 13.168 100.613 13.4667 101.21 14.064C101.807 14.6613 102.106 15.5387 102.106 16.696V21.064L101.49 19.384C102.05 17.48 103.189 15.9493 104.906 14.792C106.661 13.6347 108.695 13.056 111.01 13.056C113.399 13.056 115.49 13.6347 117.282 14.792C119.111 15.9493 120.53 17.592 121.538 19.72C122.546 21.8107 123.05 24.3307 123.05 27.28C123.05 30.192 122.546 32.7307 121.538 34.896C120.53 37.024 119.13 38.6667 117.338 39.824C115.546 40.9813 113.437 41.56 111.01 41.56C108.733 41.56 106.735 41 105.018 39.88C103.301 38.7227 102.143 37.2293 101.546 35.4H102.218V48C102.218 49.1573 101.901 50.0347 101.266 50.632C100.669 51.2293 99.8101 51.528 98.6901 51.528ZM109.05 36.24C110.431 36.24 111.645 35.904 112.69 35.232C113.735 34.56 114.538 33.5707 115.098 32.264C115.695 30.92 115.994 29.2587 115.994 27.28C115.994 24.2933 115.359 22.072 114.09 20.616C112.821 19.1227 111.141 18.376 109.05 18.376C107.669 18.376 106.455 18.712 105.41 19.384C104.365 20.0187 103.543 21.008 102.946 22.352C102.386 23.6587 102.106 25.3013 102.106 27.28C102.106 30.2293 102.741 32.4693 104.01 34C105.279 35.4933 106.959 36.24 109.05 36.24ZM132.38 41.448C131.223 41.448 130.327 41.1493 129.692 40.552C129.095 39.9173 128.796 39.0213 128.796 37.864V16.696C128.796 15.5387 129.095 14.6613 129.692 14.064C130.29 13.4667 131.13 13.168 132.212 13.168C133.295 13.168 134.135 13.4667 134.732 14.064C135.33 14.6613 135.628 15.5387 135.628 16.696V20.224H135.068C135.591 17.984 136.618 16.2853 138.148 15.128C139.679 13.9707 141.714 13.28 144.252 13.056C145.036 12.9813 145.652 13.1867 146.1 13.672C146.586 14.12 146.866 14.8293 146.94 15.8C147.015 16.7333 146.791 17.4987 146.268 18.096C145.783 18.656 145.036 18.992 144.028 19.104L142.796 19.216C140.519 19.44 138.802 20.1493 137.644 21.344C136.487 22.5013 135.908 24.144 135.908 26.272V37.864C135.908 39.0213 135.61 39.9173 135.012 40.552C134.415 41.1493 133.538 41.448 132.38 41.448ZM162.776 41.56C159.939 41.56 157.475 40.9813 155.384 39.824C153.294 38.6667 151.67 37.024 150.512 34.896C149.355 32.7307 148.776 30.192 148.776 27.28C148.776 25.0773 149.094 23.1173 149.728 21.4C150.4 19.6453 151.352 18.152 152.584 16.92C153.816 15.6507 155.291 14.6987 157.008 14.064C158.726 13.392 160.648 13.056 162.776 13.056C165.614 13.056 168.078 13.6347 170.168 14.792C172.259 15.9493 173.883 17.592 175.04 19.72C176.198 21.848 176.776 24.368 176.776 27.28C176.776 29.4827 176.44 31.4613 175.768 33.216C175.134 34.9707 174.2 36.4827 172.968 37.752C171.736 38.984 170.262 39.936 168.544 40.608C166.827 41.2427 164.904 41.56 162.776 41.56ZM162.776 36.24C164.158 36.24 165.371 35.904 166.416 35.232C167.462 34.56 168.264 33.5707 168.824 32.264C169.422 30.92 169.72 29.2587 169.72 27.28C169.72 24.2933 169.086 22.072 167.816 20.616C166.547 19.1227 164.867 18.376 162.776 18.376C161.395 18.376 160.182 18.712 159.136 19.384C158.091 20.0187 157.27 21.008 156.672 22.352C156.112 23.6587 155.832 25.3013 155.832 27.28C155.832 30.2293 156.467 32.4693 157.736 34C159.006 35.4933 160.686 36.24 162.776 36.24ZM193.082 41.56C190.693 41.56 188.583 40.9813 186.754 39.824C184.962 38.6667 183.562 37.024 182.554 34.896C181.546 32.7307 181.042 30.192 181.042 27.28C181.042 24.3307 181.546 21.8107 182.554 19.72C183.562 17.592 184.962 15.9493 186.754 14.792C188.583 13.6347 190.693 13.056 193.082 13.056C195.359 13.056 197.338 13.616 199.018 14.736C200.735 15.856 201.893 17.3307 202.49 19.16H201.874V4.6C201.874 3.44266 202.173 2.56533 202.77 1.968C203.367 1.37066 204.226 1.072 205.346 1.072C206.466 1.072 207.325 1.37066 207.922 1.968C208.557 2.56533 208.874 3.44266 208.874 4.6V37.864C208.874 39.0213 208.575 39.9173 207.978 40.552C207.381 41.1493 206.522 41.448 205.402 41.448C204.282 41.448 203.423 41.1493 202.826 40.552C202.229 39.9173 201.93 39.0213 201.93 37.864V33.496L202.546 35.176C201.986 37.1173 200.847 38.6667 199.13 39.824C197.413 40.9813 195.397 41.56 193.082 41.56ZM195.042 36.24C196.423 36.24 197.637 35.904 198.682 35.232C199.727 34.56 200.53 33.5707 201.09 32.264C201.687 30.92 201.986 29.2587 201.986 27.28C201.986 24.2933 201.351 22.072 200.082 20.616C198.813 19.1227 197.133 18.376 195.042 18.376C193.661 18.376 192.447 18.712 191.402 19.384C190.357 20.0187 189.535 21.008 188.938 22.352C188.378 23.6587 188.098 25.3013 188.098 27.28C188.098 30.2293 188.733 32.4693 190.002 34C191.271 35.4933 192.951 36.24 195.042 36.24Z" fill="#212833"/>
<path fill-rule="evenodd" clip-rule="evenodd" d="M10.6909 5.49733C8.9026 6.74779 7.28547 8.22622 5.88166 9.8905C11.6183 9.35791 18.9065 10.2276 27.368 14.4584C36.4037 18.9761 43.6797 19.1289 48.7435 18.1521C48.284 16.761 47.7055 15.424 47.0204 14.153C41.2237 14.7644 33.7925 13.9551 25.132 9.62497C19.6325 6.87522 14.7847 5.74251 10.6909 5.49733ZM43.6342 9.33331C39.0566 4.21875 32.4042 1 25 1C22.8256 1 20.7158 1.27763 18.7046 1.79935C21.4286 2.54261 24.3223 3.62998 27.368 5.15283C33.7087 8.32316 39.183 9.34395 43.6342 9.33331ZM49.8261 23.0351C43.7086 24.2431 35.261 23.995 25.132 18.9305C15.6625 14.1957 8.12555 14.2554 3.04238 15.385C2.78 15.4432 2.5238 15.5045 2.27379 15.5682C1.60828 17.0156 1.07704 18.5376 0.695878 20.1181C1.10298 20.0094 1.52366 19.906 1.9577 19.8095C8.12447 18.4391 16.8376 18.4986 27.368 23.7639C36.8376 28.4986 44.3745 28.439 49.4577 27.3094C49.6319 27.2707 49.8035 27.2307 49.9723 27.1895C49.9908 26.7954 50 26.3987 50 26C50 24.9969 49.941 24.0075 49.8261 23.0351ZM49.156 32.4654C43.0979 33.5245 34.8962 33.118 25.132 28.236C15.6625 23.5012 8.12555 23.5609 3.04238 24.6905C1.91406 24.9411 0.89905 25.2465 0.0036625 25.5689C0.00122125 25.7122 0 25.856 0 26C0 39.8071 11.1929 51 25 51C36.5714 51 46.3066 43.1386 49.156 32.4654Z" fill="#212833"/>
</g>
<defs>
<clipPath id="clip0_1_5">
<rect width="209" height="52" fill="white"/>
</clipPath>
</defs>
</svg>
